<?xml version="1.0" standalone="no"?><svg xmlns="http://www.w3.org/2000/svg" viewBox="0 0 1440 320"><path fill="#a2d9ff" fill-opacity="1" d="M0,32L15,69.3C30,107,60,181,90,213.3C120,245,150,235,180,197.3C210,160,240,96,270,96C300,96,330,160,360,186.7C390,213,420,203,450,186.7C480,171,510,149,540,144C570,139,600,149,630,160C660,171,690,181,720,197.3C750,213,780,235,810,234.7C840,235,870,213,900,186.7C930,160,960,128,990,112C1020,96,1050,96,1080,106.7C1110,117,1140,139,1170,160C1200,181,1230,203,1260,192C1290,181,1320,139,1350,144C1380,149,1410,203,1425,229.3L1440,256L1440,320L1425,320C1410,320,1380,320,1350,320C1320,320,1290,320,1260,320C1230,320,1200,320,1170,320C1140,320,1110,320,1080,320C1050,320,1020,320,990,320C960,320,930,320,900,320C870,320,840,320,810,320C780,320,750,320,720,320C690,320,660,320,630,320C600,320,570,320,540,320C510,320,480,320,450,320C420,320,390,320,360,320C330,320,300,320,270,320C240,320,210,320,180,320C150,320,120,320,90,320C60,320,30,320,15,320L0,320Z"></path></svg>